<?xml version="1.0" encoding="UTF-8"?>
<svg version="1.1" viewBox="0 0 90 90" xmlns="http://www.w3.org/2000/svg" xmlns:cc="http://creativecommons.org/ns#" xmlns:dc="http://purl.org/dc/elements/1.1/" xmlns:rdf="http://www.w3.org/1999/02/22-rdf-syntax-ns#">
 <metadata>
  <rdf:RDF>
   <cc:Work rdf:about="">
    <dc:format>image/svg+xml</dc:format>
    <dc:type rdf:resource="http://purl.org/dc/dcmitype/StillImage"/>
    <dc:title/>
   </cc:Work>
  </rdf:RDF>
 </metadata>
 <circle cx="45" cy="45" r="41.055" fill="#1d1d1d" fill-rule="evenodd" stroke="#ffffff" stroke-width="5"/>
 <path d="m29.515 66.895-6.8111-44.596h8.4328l3.7299 27.325q0.32434 2.3514 0.56759 5.1894 0.32434 2.838 0.48651 4.7029 0.24325-1.8649 0.64868-4.7029 0.40542-2.838 0.72976-5.1894l4.2164-27.325h7.8652l4.1353 27.325q0.32434 2.3514 0.72976 5.2705 0.40542 2.838 0.64868 4.7029 0.16217-1.946 0.48651-4.784 0.40542-2.919 0.64868-5.1894l3.9731-27.325h8.1084l-6.9733 44.596h-10.46l-3.8921-27.488q-0.32434-2.2704-0.72976-5.0272-0.40542-2.838-0.64868-4.6218-0.24325 1.7839-0.64868 4.6218-0.40542 2.7569-0.72976 5.0272l-4.0542 27.488z" fill="#fff" stroke-width=".422"/>
 <path d="m62.304 70.493v-1.2065l2.413-2.4977q0.508-0.51858 0.75141-0.93133 0.24342-0.42333 0.24342-0.86783 0-0.52916-0.29633-0.83608t-0.80433-0.30692q-0.56092 0-0.87841 0.32808-0.3175 0.3175-0.3175 0.889h-1.3229q0.01058-0.74083 0.3175-1.27 0.3175-0.53975 0.889-0.83608t1.3335-0.29633q0.73025 0 1.27 0.27516 0.53975 0.27517 0.83608 0.78316 0.29633 0.49742 0.29633 1.1747 0 0.70908-0.37042 1.3758-0.35983 0.66675-1.1642 1.4499l-1.5875 1.5769h3.2173v1.1959z" fill="#f60" stroke-width=".26458"/>
</svg>
